<svg width="40" height="40" viewBox="0 0 40 40" fill="none" xmlns="http://www.w3.org/2000/svg">
<g opacity="0.3">
<path d="M28.7322 39.7517H11.6304C5.39593 39.7517 0.30542 34.6612 0.30542 28.4268V11.325C0.30542 5.09051 5.39593 0 11.5732 0H28.675C34.9094 0 40 5.09051 40 11.325V28.4268C40 34.6612 34.9666 39.7517 28.7322 39.7517ZM11.0584 2.34507C6.42547 2.34507 2.65049 6.12005 2.65049 10.753V28.9415C2.65049 33.5745 6.42547 37.3495 11.0584 37.3495H29.247C33.8799 37.3495 37.6549 33.5745 37.6549 28.9415V10.753C37.6549 6.12005 33.8799 2.34507 29.247 2.34507H11.0584Z" fill="#203842"/>
<path d="M20.1527 30.0283C14.5474 30.0283 9.97168 25.4526 9.97168 19.8473C9.97168 14.242 14.5474 9.66626 20.1527 9.66626C25.758 9.66626 30.3337 14.242 30.3337 19.8473C30.3337 25.4526 25.758 30.0283 20.1527 30.0283ZM20.1527 12.1829C15.9201 12.1829 12.4311 15.6147 12.4311 19.9045C12.4311 24.137 15.8629 27.626 20.1527 27.626C24.3853 27.626 27.8743 24.1942 27.8743 19.9045C27.8743 15.6147 24.3853 12.1829 20.1527 12.1829Z" fill="#203842"/>
<path d="M33.0792 9.66622C33.0792 10.8673 32.1069 11.7825 30.963 11.7825C29.7618 11.7825 28.8467 10.8102 28.8467 9.66622C28.8467 8.46509 29.819 7.54994 30.963 7.54994C32.1069 7.54994 33.0792 8.52228 33.0792 9.66622Z" fill="#203842"/>
</g>
</svg>
