<svg width="140" height="207" viewBox="0 0 140 207" fill="none" xmlns="http://www.w3.org/2000/svg">
<path fill-rule="evenodd" clip-rule="evenodd" d="M139.105 104.214C130.309 171.514 48.6867 130.522 15.9562 154.383C27.6165 164.58 42.5498 164.784 62.5972 164.988C90.0091 165.192 127.24 163.561 139.309 163.561C132.559 197.211 112.716 205.776 81.0082 206.592C65.2566 207 47.6639 207.408 37.6402 205.776C5.52333 200.474 -4.29583 163.765 1.63658 136.436C4.5005 119.917 16.3653 110.128 34.5717 105.641C53.3918 101.155 115.989 104.214 139.105 104.214Z" fill="#E11141"/>
<path fill-rule="evenodd" clip-rule="evenodd" d="M138.491 49.7616C128.058 122.161 29.6621 63.0177 5.93245 111.964C-3.06845 76.4778 6.13702 58.1231 34.1626 51.1892C52.7781 46.4985 114.762 49.7616 138.491 49.7616Z" fill="#E11141"/>
<path fill-rule="evenodd" clip-rule="evenodd" d="M43.3681 38.9527C54.0055 38.9527 63.0064 30.3872 63.0064 19.5783C63.0064 8.36158 54.2101 0 43.3681 0C32.7307 0 23.9343 8.56552 23.9343 19.5783C24.1389 30.5911 32.7307 38.9527 43.3681 38.9527Z" fill="#203842"/>
<path fill-rule="evenodd" clip-rule="evenodd" d="M93.8957 38.9527C104.533 38.9527 113.534 30.3872 113.534 19.5783C113.534 8.36158 104.738 0 93.8957 0C83.2582 0 74.4619 8.56552 74.4619 19.5783C74.4619 30.5911 83.2582 38.9527 93.8957 38.9527Z" fill="#203842"/>
</svg>
