<svg width="44" height="44" viewBox="0 0 44 44" fill="none" xmlns="http://www.w3.org/2000/svg">
<path fill-rule="evenodd" clip-rule="evenodd" d="M12.3097 16.6705C9.26357 18.0191 5.70973 18.6934 3.17127 19.8735C-1.90566 22.2337 -0.382581 24.2567 4.18665 25.2682C6.72511 25.9425 9.9405 25.9425 12.9866 26.4482C16.5405 26.954 16.5405 27.1226 16.5405 31C16.5405 33.6973 16.0328 36.0574 16.0328 38.249C15.8636 45.6666 19.2482 45.1609 22.2943 39.0919C23.1405 37.2375 23.9867 35.2145 24.6636 33.5287C26.1867 30.157 25.8482 29.6513 29.9097 30.4942C32.4482 31 34.479 32.18 36.679 33.0229C41.7559 34.8774 46.6636 34.203 41.5867 28.8084C39.7251 26.7854 36.8482 25.2682 34.9866 23.0766C32.7867 20.5479 32.9559 19.7049 34.8174 17.1762C36.5097 14.8161 38.879 12.7931 40.402 10.6015C43.1097 6.38693 41.4174 4.19536 36.679 6.21835C34.1405 7.39843 32.279 9.25283 29.2328 10.2643C26.0174 11.2758 25.1713 11.2758 23.1405 8.74709C21.1097 6.04977 19.9251 3.01529 17.8943 1.16088C15.6943 -1.03069 13.3251 -0.0191975 13.4943 3.35245C13.6636 6.21835 14.3405 9.08425 14.679 12.1187C14.8482 15.1532 15.1867 15.4904 12.3097 16.6705Z" fill="#462369"/>
</svg>
